<svg width="24" height="24" viewBox="0 0 24 24" fill="none" xmlns="http://www.w3.org/2000/svg">
<g clip-path="url(#clip0_3006_9670)">
<path d="M21 7.02658H3C2.73478 7.02658 2.48043 6.91982 2.29289 6.72979C2.10536 6.53976 2 6.28203 2 6.01329C2 5.74455 2.10536 5.48681 2.29289 5.29679C2.48043 5.10676 2.73478 5 3 5H21C21.2652 5 21.5196 5.10676 21.7071 5.29679C21.8946 5.48681 22 5.74455 22 6.01329C22 6.28203 21.8946 6.53976 21.7071 6.72979C21.5196 6.91982 21.2652 7.02658 21 7.02658Z" fill="white"/>
<path d="M21 13.011H3C2.73478 13.011 2.48043 12.9042 2.29289 12.7142C2.10536 12.5241 2 12.2664 2 11.9977C2 11.7289 2.10536 11.4712 2.29289 11.2812C2.48043 11.0911 2.73478 10.9844 3 10.9844H21C21.2652 10.9844 21.5196 11.0911 21.7071 11.2812C21.8946 11.4712 22 11.7289 22 11.9977C22 12.2664 21.8946 12.5241 21.7071 12.7142C21.5196 12.9042 21.2652 13.011 21 13.011Z" fill="white"/>
<path d="M21 18.9992H3C2.73478 18.9992 2.48043 18.8925 2.29289 18.7024C2.10536 18.5124 2 18.2547 2 17.9859C2 17.7172 2.10536 17.4595 2.29289 17.2694C2.48043 17.0794 2.73478 16.9727 3 16.9727H21C21.2652 16.9727 21.5196 17.0794 21.7071 17.2694C21.8946 17.4595 22 17.7172 22 17.9859C22 18.2547 21.8946 18.5124 21.7071 18.7024C21.5196 18.8925 21.2652 18.9992 21 18.9992Z" fill="white"/>
</g>
<defs>
<clipPath id="clip0_3006_9670">
<rect width="24" height="24" fill="white"/>
</clipPath>
</defs>
</svg>
