<svg width="24" height="24" viewBox="0 0 24 24" fill="none" xmlns="http://www.w3.org/2000/svg">
<g clip-path="url(#clip0_3006_9665)">
<g filter="url(#filter0_d_3006_9665)">
<g filter="url(#filter1_d_3006_9665)">
<path d="M21.7204 20.3134L16.4762 14.8749C17.531 13.4936 18.1025 11.8051 18.1031 10.0683C18.1104 8.24576 17.4967 6.47484 16.3628 5.04619C15.2289 3.61754 13.6422 2.61603 11.8629 2.206C10.0836 1.79598 8.21756 2.00181 6.57093 2.7897C4.92429 3.57759 3.59491 4.90076 2.80093 6.54205C2.00694 8.18334 1.79553 10.0453 2.20139 11.8223C2.60724 13.5993 3.60625 15.1858 5.03447 16.3215C6.46269 17.4572 8.23529 18.0746 10.0614 18.0724C11.8874 18.0701 13.6585 17.4484 15.084 16.3093L20.2772 21.692C20.4607 21.8833 20.7127 21.994 20.9779 21.9998C21.2431 22.0056 21.4998 21.906 21.6914 21.7229C21.883 21.5398 21.994 21.2883 21.9998 21.0236C22.0056 20.7589 21.9058 20.5027 21.7224 20.3114M4.02631 10.0683C4.02335 8.87594 4.3749 7.70948 5.03647 6.7166C5.69804 5.72373 6.63988 4.94908 7.74276 4.49072C8.84564 4.03236 10.06 3.9109 11.2321 4.1417C12.4041 4.37251 13.4813 4.94522 14.3271 5.78732C15.1729 6.62942 15.7494 7.70306 15.9835 8.87233C16.2177 10.0416 16.099 11.2539 15.6425 12.3558C15.186 13.4577 14.4122 14.3997 13.4191 15.0625C12.426 15.7252 11.2582 16.079 10.0635 16.079C8.46484 16.0793 6.93137 15.4466 5.79956 14.3197C4.66774 13.1929 4.03002 11.6639 4.02631 10.0683Z" fill="white"/>
</g>
</g>
</g>
<defs>
<filter id="filter0_d_3006_9665" x="-1" y="0" width="26" height="26" filterUnits="userSpaceOnUse" color-interpolation-filters="sRGB">
<feFlood flood-opacity="0" result="BackgroundImageFix"/>
<feColorMatrix in="SourceAlpha" type="matrix" values="0 0 0 0 0 0 0 0 0 0 0 0 0 0 0 0 0 0 127 0" result="hardAlpha"/>
<feOffset dy="1"/>
<feGaussianBlur stdDeviation="1.5"/>
<feComposite in2="hardAlpha" operator="out"/>
<feColorMatrix type="matrix" values="0 0 0 0 0 0 0 0 0 0 0 0 0 0 0 0 0 0 0.25 0"/>
<feBlend mode="normal" in2="BackgroundImageFix" result="effect1_dropShadow_3006_9665"/>
<feBlend mode="normal" in="SourceGraphic" in2="effect1_dropShadow_3006_9665" result="shape"/>
</filter>
<filter id="filter1_d_3006_9665" x="-2" y="-1" width="28" height="28" filterUnits="userSpaceOnUse" color-interpolation-filters="sRGB">
<feFlood flood-opacity="0" result="BackgroundImageFix"/>
<feColorMatrix in="SourceAlpha" type="matrix" values="0 0 0 0 0 0 0 0 0 0 0 0 0 0 0 0 0 0 127 0" result="hardAlpha"/>
<feOffset dy="1"/>
<feGaussianBlur stdDeviation="2"/>
<feComposite in2="hardAlpha" operator="out"/>
<feColorMatrix type="matrix" values="0 0 0 0 0 0 0 0 0 0 0 0 0 0 0 0 0 0 0.25 0"/>
<feBlend mode="normal" in2="BackgroundImageFix" result="effect1_dropShadow_3006_9665"/>
<feBlend mode="normal" in="SourceGraphic" in2="effect1_dropShadow_3006_9665" result="shape"/>
</filter>
<clipPath id="clip0_3006_9665">
<rect width="24" height="24" fill="white"/>
</clipPath>
</defs>
</svg>
